<?xml version="1.0" standalone="no"?>
<!DOCTYPE svg PUBLIC "-//W3C//DTD SVG 20010904//EN"
 "http://www.w3.org/TR/2001/REC-SVG-20010904/DTD/svg10.dtd">
<svg version="1.0" xmlns="http://www.w3.org/2000/svg"
 width="1920.000000pt" height="1080.000000pt" viewBox="0 0 1920.000000 1080.000000"
 preserveAspectRatio="xMidYMid meet">

<g transform="translate(0.000000,1080.000000) scale(0.100000,-0.100000)"
fill="#000000" stroke="none">
<path d="M0 5400 l0 -5400 9600 0 9600 0 0 4610 c0 2535 -3 4609 -7 4608 -15
-3 -43 14 -43 27 0 13 28 30 43 27 4 -1 7 342 7 763 l0 765 -9600 0 -9600 0 0
-5400z m13183 4129 c34 -15 77 -86 77 -127 0 -42 -46 -91 -87 -93 -87 -4 -119
18 -146 103 -3 9 1 34 10 56 23 59 90 87 146 61z m2956 -1597 c26 -22 34 -37
38 -74 5 -40 2 -50 -20 -72 -41 -41 -127 -32 -169 18 -20 24 -23 85 -5 108 43
54 106 62 156 20z m-4015 -621 c4 -5 -3 -7 -14 -4 -23 6 -26 13 -6 13 8 0 17
-4 20 -9z m221 -41 c15 0 26 -7 30 -20 3 -11 11 -20 16 -20 5 0 9 -9 9 -20 0
-11 5 -20 11 -20 6 0 20 -12 31 -26 12 -14 27 -23 35 -20 7 3 16 -1 19 -9 3
-8 26 -17 52 -20 216 -29 567 -98 817 -162 329 -83 472 -127 676 -208 89 -36
166 -62 172 -58 5 3 8 2 4 -3 -6 -10 201 -104 238 -109 13 -1 29 2 37 6 8 6 9
9 2 9 -7 0 -14 7 -18 15 -5 13 -2 14 15 4 16 -8 20 -8 15 0 -4 6 3 15 16 20
17 6 25 5 30 -8 5 -13 7 -13 7 -1 1 17 71 20 93 3 7 -5 25 -15 40 -22 15 -8
28 -22 30 -32 2 -14 7 -16 18 -9 13 9 13 12 -2 21 -24 14 -23 29 2 29 11 0 20
-6 20 -14 0 -7 8 -16 18 -20 9 -3 24 -9 32 -12 8 -4 4 5 -9 20 -14 14 -23 26
-20 27 2 0 14 2 27 5 16 3 25 -2 30 -17 8 -20 10 -20 24 -5 9 8 19 21 21 28 4
10 8 10 15 -1 6 -8 17 -11 27 -7 12 4 15 1 13 -12 -2 -9 -11 -16 -21 -16 -9 1
-17 -4 -17 -12 0 -26 38 -15 51 16 13 27 15 28 31 13 16 -15 64 -23 136 -25
21 0 22 -1 8 -17 -20 -22 -20 -31 0 -31 8 0 12 5 9 10 -4 6 5 10 19 10 14 0
26 5 26 10 0 6 14 10 32 10 25 0 29 -3 20 -12 -7 -7 -12 -17 -12 -23 0 -5 4
-4 9 3 6 10 21 12 54 7 46 -7 55 -20 28 -41 -10 -7 29 -15 145 -28 375 -41
672 -78 706 -87 21 -5 42 -18 48 -28 12 -24 35 -179 50 -334 10 -116 11 -120
44 -150 24 -23 36 -45 41 -77 4 -25 15 -66 25 -92 18 -48 18 -48 -3 -48 -12 0
-33 -3 -47 -5 l-25 -6 23 12 c16 9 21 17 16 28 -7 15 -9 34 -13 111 -1 24 -11
45 -31 67 -29 31 -31 40 -54 221 -23 187 -48 276 -78 287 -22 7 -308 43 -558
70 -537 56 -1262 112 -1760 135 -480 22 -795 29 -1030 24 -286 -6 -306 -7
-331 -30 -11 -10 -79 -113 -151 -231 -72 -117 -133 -211 -135 -209 -2 2 46 86
108 187 62 101 123 202 135 225 38 65 50 68 314 72 325 6 1540 -36 1590 -54
10 -3 12 -2 5 4 -14 14 -332 148 -411 173 -35 11 -67 26 -71 32 -4 7 0 8 11 4
10 -4 30 -10 44 -13 55 -11 -4 14 -113 49 -231 75 -654 178 -925 226 -143 26
-479 71 -621 84 -63 6 -108 32 -109 61 0 5 10 0 23 -12 26 -24 47 -29 47 -9 0
9 2 9 8 0 6 -9 14 1 27 30 33 74 59 114 63 94 2 -10 13 -17 27 -17z m-208 -17
c-3 -10 -5 -4 -5 12 0 17 2 24 5 18 2 -7 2 -21 0 -30z m-702 17 c3 -6 -1 -7
-9 -4 -18 7 -21 14 -7 14 6 0 13 -4 16 -10z m-685 -21 c119 -12 650 -32 658
-24 4 3 0 10 -8 15 -12 8 -12 10 -2 10 8 0 16 -9 19 -20 4 -16 14 -20 47 -20
75 0 286 -23 286 -32 0 -11 -30 -10 -258 7 -108 8 -291 19 -407 25 -115 5
-246 15 -290 20 -44 6 -181 15 -305 19 l-225 8 200 1 c110 0 238 -4 285 -9z
m620 1 c0 -5 -2 -10 -4 -10 -3 0 -8 5 -11 10 -3 6 -1 10 4 10 6 0 11 -4 11
-10z m-1241 -4 c-2 -2 -78 -6 -169 -8 -91 -3 -136 -2 -100 2 71 7 276 12 269
6z m1961 -6 c0 -5 -4 -10 -10 -10 -5 0 -10 5 -10 10 0 6 5 10 10 10 6 0 10 -4
10 -10z m-572 -7 c-16 -2 -40 -2 -55 0 -16 2 -3 4 27 4 30 0 43 -2 28 -4z
m629 -25 c-3 -8 -6 -5 -6 6 -1 11 2 17 5 13 3 -3 4 -12 1 -19z m-2560 6 c-3
-3 -12 -4 -19 -1 -8 3 -5 6 6 6 11 1 17 -2 13 -5z m2286 -14 c5 -4 -3 -5 -17
-3 -15 3 -29 10 -32 15 -7 11 36 1 49 -12z m-2288 -5 c45 -10 52 -14 28 -14
-33 -1 -52 -16 -31 -24 8 -3 5 -6 -6 -6 -15 -1 -16 -4 -6 -16 7 -8 25 -13 46
-11 26 2 38 -3 49 -20 14 -22 13 -23 -13 -27 -15 -2 7 -5 48 -6 41 -1 104 -6
140 -12 36 -5 83 -12 105 -15 68 -9 52 -14 -51 -15 -64 0 -92 -3 -79 -9 11 -5
35 -14 53 -22 17 -7 32 -16 32 -20 0 -5 5 -8 10 -8 16 0 185 -82 188 -92 2 -4
10 -8 17 -8 8 0 22 -11 33 -25 11 -13 22 -21 26 -18 3 3 6 1 6 -5 0 -7 9 -12
20 -12 13 0 18 -5 14 -15 -4 -9 1 -18 12 -22 11 -4 25 -13 32 -20 7 -7 20 -13
28 -13 8 0 14 -4 14 -8 0 -5 20 -19 45 -32 25 -13 45 -26 45 -30 0 -4 19 -18
43 -30 24 -13 48 -33 53 -44 5 -12 19 -22 32 -24 12 -2 20 -7 17 -12 -3 -5 5
-12 17 -16 13 -4 25 -10 28 -13 10 -13 141 -101 150 -101 6 0 10 -5 10 -12 0
-14 59 -68 75 -68 18 0 62 -53 69 -83 4 -18 3 -26 -3 -23 -5 4 -18 -2 -28 -13
-18 -19 -51 -29 -120 -36 -21 -2 -81 -9 -133 -15 -52 -6 -122 -13 -154 -15
-33 -2 -77 -7 -98 -10 -27 -5 -38 -3 -38 6 0 8 -7 6 -20 -6 -32 -29 -35 -10
-4 32 27 36 27 37 3 16 -14 -13 -28 -23 -32 -23 -4 0 -20 -11 -36 -25 -96 -87
-99 -73 -4 21 124 121 160 179 149 239 -21 109 -311 376 -536 494 -179 93
-320 133 -537 151 -338 29 -771 -63 -1118 -237 -308 -154 -524 -317 -897 -674
-97 -93 -181 -169 -186 -169 -24 0 398 391 585 541 133 107 361 261 488 329
44 24 98 53 121 65 344 189 1041 338 1299 280z m282 -44 c12 -6 1 -7 -33 -4
-70 8 -104 25 -36 19 28 -3 60 -9 69 -15z m-167 -21 c0 -5 -4 -10 -10 -10 -5
0 -10 5 -10 10 0 6 5 10 10 10 6 0 10 -4 10 -10z m439 -26 c29 -8 52 -17 50
-19 -4 -3 -104 19 -154 35 -27 9 -26 9 10 4 22 -3 64 -12 94 -20z m136 7 c66
-6 71 -8 30 -10 l-50 -1 25 -21 25 -21 -30 16 c-16 8 -55 24 -85 36 -30 11
-41 18 -25 14 17 -3 66 -9 110 -13z m-510 -1 c3 -5 0 -7 -9 -4 -9 3 -16 -2
-18 -13 -3 -15 -5 -15 -10 5 -5 17 -2 22 12 22 11 0 22 -4 25 -10z m28 -27
c-7 -2 -19 -2 -25 0 -7 3 -2 5 12 5 14 0 19 -2 13 -5z m1160 -3 c194 0 110 -7
-148 -13 -137 -2 -241 -3 -230 -1 43 9 211 22 239 18 16 -2 78 -4 139 -4z
m-418 -20 c-3 -5 -39 -9 -78 -8 l-72 2 75 6 c41 4 76 7 78 8 2 1 0 -2 -3 -8z
m-265 -10 c13 -8 13 -10 -2 -10 -9 0 -20 5 -23 10 -8 13 5 13 25 0z m-156 -40
c34 -14 -3 -11 -64 5 l-55 15 49 -6 c27 -3 58 -9 70 -14z m4703 -81 c16 -31
16 -81 1 -102 -21 -27 -69 -47 -88 -37 -30 16 -44 66 -31 109 18 60 93 79 118
30z m-827 -79 c0 -5 -5 -10 -11 -10 -5 0 -7 5 -4 10 3 6 8 10 11 10 2 0 4 -4
4 -10z m1308 -293 c15 -4 15 -5 1 -6 -22 -1 -43 25 -32 41 6 9 9 7 11 -9 2
-12 11 -24 20 -26z m-3628 -224 c-8 -3 -22 -11 -30 -18 -17 -14 -80 -16 -80
-3 0 4 9 8 21 8 11 0 17 5 14 10 -4 6 12 10 42 9 26 0 41 -3 33 -6z m-110
-122 c25 -6 150 -22 278 -36 250 -27 368 -48 232 -40 -101 5 -422 42 -490 56
-57 12 -100 34 -100 52 0 5 8 3 18 -6 9 -8 37 -20 62 -26z m-1310 19 c0 -5 -5
-10 -11 -10 -5 0 -7 5 -4 10 3 6 8 10 11 10 2 0 4 -4 4 -10z m1420 -18 c3 -3
-8 -2 -25 2 -16 4 -34 12 -40 17 -5 5 6 4 25 -2 19 -7 37 -14 40 -17z m323
-89 c-7 -2 -21 -2 -30 0 -10 3 -4 5 12 5 17 0 24 -2 18 -5z m-205 -78 c-69
-21 -214 -44 -179 -29 26 12 205 52 231 53 14 0 -10 -11 -52 -24z m-300 -122
c-10 -2 -28 -2 -40 0 -13 2 -5 4 17 4 22 1 32 -1 23 -4z m-5143 -28 c-16 -13
-43 -50 -60 -82 -17 -32 -38 -59 -49 -61 -16 -3 -16 -1 -5 20 23 43 74 105
104 127 40 28 47 26 10 -4z m4985 10 c-47 -7 -87 -12 -89 -10 -1 2 14 7 35 10
22 4 44 8 49 10 6 2 28 3 50 3 25 0 7 -5 -45 -13z m-4368 -68 c-34 -34 -62
-57 -62 -51 0 14 112 125 119 118 3 -3 -23 -33 -57 -67z m4213 25 c-6 -5 -40
-30 -77 -56 -69 -48 -150 -146 -163 -198 -4 -15 -2 -43 5 -63 7 -20 10 -39 7
-42 -3 -3 -11 14 -18 37 -10 34 -14 39 -20 24 -7 -17 -8 -17 -8 -1 -1 9 -6 17
-12 17 -5 0 -7 -6 -3 -12 6 -10 4 -10 -7 0 -36 33 -84 -19 -56 -62 7 -11 24
-50 36 -86 27 -73 43 -101 113 -182 26 -31 48 -61 48 -67 0 -6 -24 -28 -52
-49 -47 -35 -145 -78 -288 -126 -44 -15 -380 -138 -410 -150 -11 -4 -25 15
-54 79 -32 71 -133 252 -192 345 -9 14 -10 18 -3 9 28 -32 111 -24 166 17 17
13 36 24 42 24 6 0 11 5 11 10 0 6 12 10 26 10 41 0 134 30 134 44 0 11 51 38
76 40 6 1 18 7 26 14 9 7 22 10 31 6 9 -3 31 1 49 10 18 8 52 20 76 27 23 7
40 14 37 17 -7 8 15 43 25 37 14 -8 70 71 70 99 0 16 6 26 14 26 8 0 18 5 22
11 18 30 -878 -59 -1109 -110 -23 -5 -85 -14 -137 -20 -124 -14 -258 -49 -411
-107 -68 -26 -137 -52 -154 -58 -16 -6 -48 -23 -70 -37 -22 -14 -47 -28 -56
-31 -8 -3 -50 -29 -93 -57 -43 -28 -84 -51 -91 -51 -7 0 -30 -16 -51 -36 -22
-19 -69 -62 -105 -94 -36 -32 -87 -88 -115 -124 -34 -47 -54 -65 -67 -62 -9 2
-15 1 -12 -4 6 -9 -68 -21 -158 -24 -37 -2 -70 -6 -74 -9 -13 -14 -25 -6 -13
8 7 9 11 18 8 20 -7 8 -23 -15 -37 -50 l-11 -30 6 35 c3 19 34 107 69 195 35
88 65 167 69 175 3 8 3 -3 1 -25 -5 -36 -4 -37 5 -14 12 28 61 47 145 56 66 7
217 40 283 62 34 12 70 21 79 21 10 0 28 7 40 15 12 9 26 14 30 13 4 -1 24 5
44 14 20 9 47 19 60 23 13 4 85 31 159 60 184 71 330 111 590 161 162 31 179
33 530 77 151 19 302 39 335 43 33 5 68 7 78 6 9 -1 17 3 17 8 0 16 -270 5
-495 -20 -104 -11 -253 -27 -330 -35 -386 -40 -1487 -215 -1579 -251 -17 -6
-18 -4 -12 22 9 36 68 166 73 161 2 -2 -5 -25 -16 -51 -11 -25 -16 -46 -10
-46 5 0 12 7 15 15 4 8 10 15 16 15 5 0 6 -4 3 -10 -7 -11 8 -14 19 -3 12 12
40 13 63 1 17 -8 26 -8 37 1 9 7 31 13 51 14 19 1 35 4 35 8 0 4 17 7 38 7 20
0 70 4 111 10 43 6 84 6 97 2 22 -9 215 13 236 26 6 4 29 8 52 10 23 1 176 20
341 43 165 22 383 49 485 61 102 11 219 25 260 30 155 20 699 58 920 64 14 1
45 13 70 27 81 48 106 60 85 41z m675 -67 c255 -23 272 -28 421 -123 154 -97
159 -99 361 -126 101 -14 235 -30 298 -36 146 -14 149 -15 124 -40 -19 -18
-22 -18 -189 0 -252 29 -435 60 -477 81 -21 11 -81 46 -135 79 -53 33 -121 69
-149 80 -68 25 -348 52 -559 54 -150 1 -163 0 -204 -22 -46 -25 -136 -104
-152 -134 -22 -40 101 -217 164 -236 74 -23 280 -36 897 -57 646 -21 683 -24
677 -46 -3 -12 2 -19 17 -23 25 -5 -687 4 -717 10 -11 2 -66 6 -121 9 -56 2
-135 7 -176 10 -41 3 -147 10 -235 15 -209 14 -345 29 -370 42 -31 16 -105 90
-121 121 -8 15 -19 25 -24 22 -5 -3 -11 -1 -15 5 -3 5 -1 10 5 10 6 0 2 17
-10 40 -27 53 -25 81 9 124 33 41 122 116 166 139 40 22 279 22 515 2z m-685
-25 c-3 -5 -10 -10 -16 -10 -5 0 -9 5 -9 10 0 6 7 10 16 10 8 0 12 -4 9 -10z
m-4895 -40 c0 -5 -5 -10 -11 -10 -5 0 -7 5 -4 10 3 6 8 10 11 10 2 0 4 -4 4
-10z m2060 7 c0 -2 -9 -12 -20 -22 -24 -21 -27 -14 -4 9 15 15 24 20 24 13z
m20 -20 c0 -2 -10 -12 -22 -23 l-23 -19 19 23 c18 21 26 27 26 19z m-55 -77
c-9 -16 -18 -30 -21 -30 -2 0 2 14 11 30 9 17 18 30 21 30 2 0 -2 -13 -11 -30z
m-55 -39 c-16 -32 -40 -89 -52 -127 -17 -48 -28 -68 -38 -66 -20 3 -548 -110
-851 -183 -286 -69 -415 -102 -820 -211 -173 -46 -318 -84 -322 -84 -4 0 -7 5
-7 11 0 5 4 8 10 4 5 -3 18 3 30 15 11 11 20 16 20 10 0 -5 7 -10 15 -10 8 0
15 7 15 15 0 10 11 15 33 16 27 2 28 2 7 6 -43 8 -41 19 3 16 23 -1 32 1 19 3
-28 7 -19 24 14 24 14 0 23 5 22 13 -2 7 6 11 19 10 16 -2 21 2 17 12 -4 10 5
16 33 20 21 3 46 10 55 16 10 5 27 9 38 9 11 0 39 8 63 19 60 26 143 49 209
56 32 4 55 11 52 16 -6 11 -6 11 34 0 20 -6 30 -6 27 0 -8 12 17 12 49 -1 64
-24 197 -16 156 10 -9 6 -8 12 7 27 18 18 82 33 153 36 14 1 33 9 44 19 15 13
23 14 42 6 27 -13 29 -19 12 -36 -16 -16 4 -15 26 1 14 10 17 23 14 55 -4 43
10 60 31 39 8 -8 11 -8 11 0 0 13 37 23 115 29 32 3 67 11 75 19 9 8 20 12 23
9 4 -4 9 1 13 10 4 10 13 14 24 11 9 -3 59 6 111 19 91 23 134 30 284 42 54 4
74 10 88 26 14 16 17 17 17 4 0 -9 -5 -16 -11 -16 -5 0 -7 -5 -3 -11 4 -8 15
3 27 27 28 57 67 124 72 124 2 0 -9 -26 -25 -59z m3095 29 c-3 -5 -10 -10 -16
-10 -5 0 -9 5 -9 10 0 6 7 10 16 10 8 0 12 -4 9 -10z m4817 -70 c-34 -33 -68
-60 -75 -60 -6 0 -4 5 6 11 9 6 14 15 11 21 -4 6 -3 8 3 5 6 -4 19 3 29 16
l19 22 -22 -19 c-13 -11 -23 -16 -23 -11 0 4 -7 1 -16 -6 -18 -15 -74 -22 -74
-9 0 3 -6 7 -12 7 -102 3 -235 18 -240 27 -5 8 -13 8 -27 -1 -14 -9 -22 -9
-27 -2 -9 16 -5 17 86 28 75 10 156 9 321 -3 33 -3 52 1 70 15 46 35 34 18
-29 -41z m-7215 34 c-3 -3 -12 -4 -19 -1 -8 3 -5 6 6 6 11 1 17 -2 13 -5z
m2353 -4 c0 -5 -4 -10 -10 -10 -5 0 -10 5 -10 10 0 6 5 10 10 10 6 0 10 -4 10
-10z m5181 -13 c36 -24 98 -110 120 -166 10 -27 23 -78 28 -113 15 -93 18
-245 4 -259 -13 -13 -225 0 -533 32 -148 15 -188 22 -197 36 -20 27 -15 34 20
29 118 -20 652 -60 667 -51 14 9 12 107 -4 196 -21 118 -72 216 -131 255 -23
15 -29 15 -82 -2 -45 -14 -73 -33 -128 -86 -39 -37 -85 -72 -101 -78 -45 -18
-370 -26 -389 -10 -8 7 -15 16 -15 20 0 4 55 9 121 9 142 2 265 16 288 33 9 6
46 40 82 75 52 51 77 68 125 82 68 21 90 20 125 -2z m52 -3 c4 -1 8 -2 10 -4
1 -1 9 -3 17 -5 8 -2 29 -8 45 -14 24 -7 26 -9 8 -10 -12 -1 -29 -4 -38 -7
-13 -5 -14 -8 -3 -15 7 -5 8 -9 2 -9 -5 0 -30 21 -55 47 -31 32 -37 42 -19 33
14 -8 28 -15 33 -16z m-7673 12 c0 -2 -13 -6 -29 -8 -17 -2 -28 -1 -25 4 5 8
54 12 54 4z m4608 -3 c-32 -2 -84 -2 -115 0 -32 2 -6 3 57 3 63 0 89 -1 58 -3z
m-7173 -17 c19 -8 35 -18 35 -21 0 -5 -70 21 -79 30 -8 9 10 5 44 -9z m7620 4
c431 -19 1034 -50 1360 -71 304 -20 511 -21 740 -4 l60 4 -45 -10 c-85 -20
-606 -16 -970 8 -425 29 -617 39 -1070 58 -406 17 -463 21 -375 23 33 1 168
-3 300 -8z m-625 -22 c0 -14 -68 -158 -74 -158 -4 0 1 17 10 38 10 20 18 48
19 62 2 40 14 67 30 67 8 0 15 -4 15 -9z m-6645 -58 c13 -6 15 -9 5 -9 -8 0
-22 4 -30 9 -18 12 -2 12 25 0z m9945 0 c0 -5 -2 -10 -4 -10 -3 0 -8 5 -11 10
-3 6 -1 10 4 10 6 0 11 -4 11 -10z m-10077 -7 c-7 -2 -13 -13 -13 -24 0 -10
-5 -19 -11 -19 -6 0 -9 7 -6 14 4 10 1 13 -9 9 -7 -3 -14 -7 -14 -9 0 -10 39
-42 44 -36 3 3 6 0 6 -6 0 -15 -58 -45 -71 -37 -5 4 -17 1 -26 -7 -14 -11 -16
-11 -8 2 5 9 0 8 -13 -4 -45 -39 -34 -4 13 44 27 28 43 50 36 50 -7 0 -27 -17
-44 -37 -49 -56 -131 -133 -142 -132 -5 0 0 7 13 16 26 18 30 38 6 29 -14 -5
-15 -4 -4 9 7 8 9 15 4 15 -5 0 0 8 11 17 19 15 19 15 -5 8 -14 -4 -36 -8 -50
-9 -14 -1 -36 -8 -49 -15 -13 -7 -21 -8 -17 -2 5 7 1 9 -8 5 -9 -3 -13 -11
-10 -16 4 -6 -2 -7 -16 -3 -15 5 -20 4 -16 -4 5 -7 -2 -11 -17 -11 -13 0 -40
-11 -60 -24 -19 -13 -37 -22 -40 -20 -2 2 -27 -6 -55 -19 -29 -13 -48 -27 -44
-31 4 -5 0 -7 -8 -6 -20 4 -80 -20 -80 -31 0 -5 -6 -9 -14 -9 -7 0 -51 -32
-96 -71 -79 -68 -188 -130 -255 -144 l-30 -7 25 14 c14 8 57 27 95 43 53 22
90 48 151 105 51 47 111 91 161 118 108 57 375 162 438 172 59 10 116 30 140
50 13 11 19 12 22 3 3 -8 11 -7 31 3 15 8 32 14 37 13 6 0 4 -3 -2 -6z m6694
-69 c-18 -38 -42 -82 -52 -98 l-20 -30 22 6 c16 4 20 2 16 -8 -3 -8 -14 -14
-24 -14 -35 0 -19 -15 19 -17 136 -8 166 -32 42 -34 -96 -2 -96 -2 -107 -12
-4 -5 -3 -8 2 -7 6 1 23 2 39 1 46 -2 24 -12 -28 -13 -25 0 -49 -4 -52 -9 -3
-5 -10 -9 -15 -9 -6 0 -3 7 5 16 26 26 106 153 144 231 20 40 38 71 39 69 2
-2 -11 -35 -30 -72z m-6609 55 c-8 -18 -87 -104 -113 -122 -29 -21 -29 -20 7
22 20 24 34 49 31 57 -3 8 0 14 7 14 6 0 8 -4 5 -10 -11 -17 0 -11 19 11 18
21 18 22 -8 15 -19 -5 -24 -3 -20 7 3 8 19 13 39 13 19 -1 34 -4 33 -7z
m10020 -50 c-3 -8 -7 -3 -11 10 -4 17 -3 21 5 13 5 -5 8 -16 6 -23z m-1018 1
c6 -11 9 -20 7 -20 -2 0 -12 9 -22 20 -10 11 -13 20 -7 20 6 0 16 -9 22 -20z
m-5618 -129 c70 -87 185 -279 228 -380 17 -40 30 -74 28 -75 -2 -1 -93 -24
-203 -51 -110 -26 -256 -65 -325 -85 -69 -20 -136 -40 -150 -43 -24 -6 -29 0
-69 80 -193 390 -448 549 -728 454 -32 -11 -59 -18 -61 -17 -6 7 105 55 140
61 21 4 35 11 32 16 -3 5 0 9 5 9 6 0 11 -4 11 -10 0 -5 14 -10 31 -10 16 0
28 4 25 9 -7 10 27 21 67 21 15 0 27 5 27 11 0 6 9 8 20 4 12 -4 20 -2 20 5 0
8 9 10 25 6 14 -4 25 -2 25 3 0 8 50 20 110 26 14 2 61 12 105 23 75 19 126
29 185 38 91 14 270 -6 270 -30 0 -13 38 -15 57 -3 9 6 11 3 7 -8 -5 -11 -2
-14 10 -9 9 3 14 10 11 14 -3 5 0 10 6 12 6 2 1 16 -12 33 l-23 30 34 -30 c18
-16 59 -63 92 -104z m6655 77 c-3 -8 -6 -5 -6 6 -1 11 2 17 5 13 3 -3 4 -12 1
-19z m10 -40 c-3 -8 -6 -5 -6 6 -1 11 2 17 5 13 3 -3 4 -12 1 -19z m-972 -58
c9 -16 13 -30 11 -30 -3 0 -12 14 -21 30 -9 17 -13 30 -11 30 3 0 12 -13 21
-30z m995 -100 c1 -81 7 -97 48 -114 21 -8 29 -15 20 -15 -10 -1 -18 -6 -18
-13 0 -6 -3 -9 -6 -5 -3 3 -17 2 -30 -3 -13 -5 -24 -6 -24 -2 -5 87 -4 276 2
247 4 -22 7 -65 8 -95z m-3220 54 c0 -2 -19 -4 -42 -3 -31 0 -37 3 -24 8 18 7
66 3 66 -5z m-5271 -72 c-7 -26 -28 -83 -47 -127 -19 -44 -50 -125 -69 -180
-28 -83 -33 -92 -28 -51 4 27 9 56 12 65 4 13 3 13 -5 2 -6 -8 -25 -15 -44
-16 -18 -1 -40 -4 -48 -7 -66 -23 -95 -27 -165 -27 -44 0 -92 -4 -105 -9 -14
-5 -42 -7 -62 -5 -20 3 -60 0 -89 -6 -41 -9 -54 -9 -61 1 -6 10 -10 10 -17 0
-9 -14 -60 -20 -236 -27 -190 -7 -321 -17 -340 -25 -11 -4 -31 -12 -44 -17
-14 -5 -61 -4 -125 4 -73 9 -117 9 -159 2 -45 -8 -62 -7 -74 2 -12 10 -16 10
-23 -1 -7 -12 -13 -12 -33 -1 -14 7 -41 12 -59 9 -24 -2 -35 1 -35 9 0 7 7 13
16 13 8 0 26 11 40 24 15 14 38 26 53 28 15 2 30 7 34 11 4 4 18 7 30 7 13 0
25 4 28 9 3 4 29 11 58 14 30 4 74 13 98 21 25 7 79 21 120 30 135 29 424 89
472 97 26 4 73 14 105 23 65 16 195 45 233 51 14 2 45 9 70 15 25 6 77 13 115
16 39 2 90 9 115 15 83 19 125 28 155 33 17 2 42 7 58 10 18 4 27 2 27 -6 1
-21 30 24 31 46 0 12 3 15 6 8 3 -8 -1 -35 -8 -60z m2883 0 c9 -23 117 -87
191 -113 45 -15 76 -28 68 -29 -7 0 -11 -6 -7 -15 3 -10 -1 -15 -12 -15 -15 0
-15 -2 -2 -10 9 -6 10 -10 3 -10 -15 0 -71 -59 -79 -82 -3 -9 2 -38 11 -64 9
-26 13 -49 10 -52 -3 -3 -33 -5 -66 -4 -37 1 -72 -4 -89 -13 -17 -9 -58 -15
-97 -16 -37 0 -76 -4 -86 -7 -29 -12 -97 -2 -97 14 0 7 -11 16 -25 20 -14 3
-29 13 -34 21 -6 12 -30 15 -107 15 -95 0 -168 13 -158 29 2 4 -9 4 -26 -1
-22 -6 -28 -5 -24 2 5 7 1 9 -9 5 -9 -3 -19 -3 -21 2 -3 4 11 13 30 20 20 7
33 15 31 17 -2 3 -22 -2 -43 -9 -22 -8 -60 -22 -85 -31 -40 -14 -46 -20 -42
-39 4 -20 3 -20 -9 3 -8 14 -14 26 -14 26 2 3 345 133 476 181 149 54 201 80
255 127 42 37 51 41 57 28z m4718 -65 c0 -5 -9 -2 -20 8 -11 10 -20 25 -20 34
1 12 5 10 20 -8 11 -13 20 -28 20 -34z m-9679 -80 l-23 -22 17 28 c10 15 20
25 23 22 3 -3 -5 -16 -17 -28z m-40 -64 c-12 -20 -14 -14 -5 12 4 9 9 14 11
11 3 -2 0 -13 -6 -23z m-682 13 c-2 -2 -74 -32 -159 -66 -163 -66 -286 -124
-354 -168 -23 -15 -59 -34 -81 -44 l-40 -18 29 24 c60 50 388 207 551 264 30
11 62 15 54 8z m761 -26 c0 -5 -5 -10 -11 -10 -5 0 -7 5 -4 10 3 6 8 10 11 10
2 0 4 -4 4 -10z m10569 -85 c57 -86 79 -145 107 -280 13 -64 17 -75 25 -69 11
6 32 -15 37 -36 2 -8 7 -17 10 -20 4 -3 13 -15 20 -27 10 -19 10 -23 -3 -23
-8 0 -15 -9 -15 -21 0 -13 -4 -18 -12 -13 -8 5 -9 0 -5 -15 4 -15 2 -21 -6
-18 -14 5 -11 -102 4 -117 11 -12 12 -29 2 -23 -10 7 -10 -91 0 -123 6 -18 5
-21 -2 -11 -18 27 -10 -120 11 -183 20 -62 17 -82 -7 -50 -26 34 -47 125 -47
205 0 44 -4 79 -9 79 -5 0 -9 -4 -9 -10 0 -5 -12 -10 -26 -10 -16 0 -24 -5
-21 -12 2 -7 0 -21 -5 -31 -7 -14 -5 -22 8 -31 9 -7 18 -28 19 -47 1 -19 7
-45 12 -59 10 -24 9 -25 -28 -28 -50 -4 -60 -19 -41 -62 22 -50 22 -60 4 -60
-13 0 -12 -3 4 -14 21 -15 61 -103 51 -113 -10 -9 -28 9 -23 23 6 16 -10 19
-19 3 -5 -7 -13 -4 -26 7 -10 9 -16 20 -14 25 6 10 -10 20 -55 36 -49 18 -68
16 -107 -8 -19 -12 -36 -19 -39 -17 -7 8 68 56 98 63 33 8 57 34 60 66 2 13 9
27 17 30 21 8 -14 39 -45 39 -14 0 -22 4 -19 10 3 6 21 10 38 10 21 0 27 3 19
9 -10 6 -10 10 2 20 12 10 13 17 4 30 -14 22 -2 71 16 71 23 0 58 68 46 90
-15 29 -12 35 9 16 35 -31 100 14 71 49 -7 9 -8 15 -2 15 6 0 10 30 9 75 -1
70 -2 75 -26 84 -14 5 -33 9 -41 9 -8 0 -49 5 -90 11 -121 18 -1412 91 -2050
117 -102 4 -176 10 -165 12 30 7 522 -15 1460 -63 55 -2 152 -7 215 -11 109
-5 404 -28 516 -39 49 -5 128 6 142 20 4 4 -1 11 -11 16 -10 6 -17 21 -17 37
1 25 2 26 14 9 13 -16 14 -16 19 5 4 15 1 26 -10 31 -9 5 -11 12 -6 16 9 6 4
73 -11 146 -9 43 -35 107 -51 125 -7 8 -30 42 -51 75 -52 82 -13 48 45 -40z
m-10851 52 c-2 -12 -10 -25 -18 -30 -8 -4 10 -5 40 -2 64 5 59 2 -84 -52 -68
-25 -110 -48 -133 -71 l-35 -34 16 30 c21 40 20 52 -5 82 -11 14 -29 39 -41
55 -20 28 -20 29 -2 12 12 -9 23 -14 27 -11 13 14 127 39 182 41 52 2 56 0 53
-20z m192 9 c0 -2 -7 -6 -15 -10 -8 -3 -15 -1 -15 4 0 6 7 10 15 10 8 0 15 -2
15 -4z m7240 -16 c-20 -13 -33 -13 -25 0 3 6 14 10 23 10 15 0 15 -2 2 -10z
m-7283 -6 c-3 -3 -12 -4 -19 -1 -8 3 -5 6 6 6 11 1 17 -2 13 -5z m-407 -66
l29 -40 -24 -49 c-14 -26 -25 -62 -25 -79 0 -32 -8 -38 -28 -18 -9 9 -12 9
-12 0 0 -7 -7 -12 -16 -12 -21 0 -114 -50 -135 -72 -9 -10 -20 -18 -25 -18
-14 -1 -96 -43 -131 -68 -17 -12 -33 -32 -35 -45 -3 -17 -12 -6 -48 53 -81
136 -185 219 -273 220 -26 0 -36 4 -31 11 4 8 27 10 65 6 43 -4 61 -1 70 9 6
8 21 14 33 14 17 0 18 2 6 10 -12 8 -11 10 5 8 27 -3 128 12 140 22 6 4 24 10
40 13 17 3 80 17 140 32 61 16 122 28 138 28 15 0 27 4 27 10 0 5 7 6 16 3 12
-4 15 -2 10 9 -11 28 32 -3 64 -47z m4625 -17 c-12 -11 -135 -44 -141 -38 -4
3 29 13 146 46 2 0 0 -3 -5 -8z m50 -77 c4 -25 3 -24 -8 6 -8 19 -17 46 -20
60 -5 19 -3 17 8 -6 7 -17 16 -44 20 -60z m-220 26 c-28 -12 -37 -12 -30 0 3
6 16 10 28 9 21 0 21 -1 2 -9z m-50 -10 c-3 -5 -17 -10 -31 -10 -13 0 -32 -9
-41 -20 -10 -11 -23 -20 -31 -20 -7 0 -10 -4 -7 -10 3 -5 0 -10 -8 -10 -8 0
-21 -9 -28 -20 -14 -20 -185 -88 -173 -68 4 7 -4 8 -25 3 -20 -4 -31 -3 -31 4
0 6 -9 11 -20 11 -32 0 -23 17 12 24 17 3 29 9 25 12 -3 3 -19 3 -36 -1 -26
-6 -31 -11 -31 -37 0 -34 -6 -35 -12 -3 -1 11 -7 23 -13 27 -13 9 -14 9 230
72 235 61 228 60 220 46z m-911 -146 c57 -163 80 -210 143 -287 80 -97 97
-124 84 -132 -6 -3 -11 -2 -11 3 0 5 -38 54 -84 109 -53 64 -89 118 -100 149
-22 62 -76 246 -76 258 0 21 12 -7 44 -100z m6274 89 c-10 -2 -26 -2 -35 0
-10 3 -2 5 17 5 19 0 27 -2 18 -5z m139 -9 c-3 -3 -12 -4 -19 -1 -8 3 -5 6 6
6 11 1 17 -2 13 -5z m146 -1 c-24 -2 -62 -2 -85 0 -24 2 -5 4 42 4 47 0 66 -2
43 -4z m-1616 -139 c-3 -3 -12 -4 -19 -1 -8 3 -5 6 6 6 11 1 17 -2 13 -5z
m321 -11 c-32 -2 -84 -2 -115 0 -32 2 -6 3 57 3 63 0 89 -1 58 -3z m-9408
-122 c0 -4 11 -68 25 -142 24 -129 70 -254 101 -280 16 -13 19 -55 4 -64 -9
-6 -78 120 -111 202 -33 84 -54 293 -29 293 6 0 10 -4 10 -9z m-470 -66 c0
-19 -31 -75 -39 -71 -9 6 19 75 32 76 4 0 7 -2 7 -5z m-166 -44 c3 -4 26 -14
50 -21 25 -7 48 -19 51 -28 5 -14 7 -15 16 -2 9 12 9 11 4 -5 -28 -76 -109
-356 -130 -448 -38 -168 -60 -422 -49 -564 l9 -115 -80 7 c-44 3 -114 10 -155
15 -41 5 -101 11 -132 12 -32 2 -58 6 -58 9 0 5 -74 15 -150 20 -25 1 -74 22
-90 38 -19 18 -21 71 -3 71 8 0 13 12 13 29 0 20 6 30 20 34 11 3 20 14 20 25
0 10 9 27 20 37 16 14 19 26 15 47 -5 21 -3 28 6 26 8 -2 15 7 17 20 2 13 -2
22 -9 22 -7 0 5 17 27 37 21 20 42 36 47 35 4 -1 7 6 7 17 0 10 7 24 16 32 8
7 13 21 11 31 -4 13 0 18 13 18 25 0 36 20 19 31 -10 6 -10 9 -2 9 13 0 12 56
-1 98 -5 16 0 25 19 38 30 19 35 64 8 65 -13 0 -14 2 -4 6 8 3 30 16 49 29 19
13 43 24 53 24 9 0 19 5 21 12 3 9 12 8 38 -1 27 -9 32 -9 22 1 -21 21 -15 39
12 32 17 -4 27 0 34 12 8 14 13 16 24 6 19 -15 32 -3 17 15 -9 9 -8 13 0 13 6
0 11 7 11 15 0 9 7 18 15 21 18 7 20 24 3 24 -19 0 -47 31 -41 46 3 8 -1 14
-11 14 -9 0 -16 5 -16 10 0 6 7 10 16 10 8 0 12 5 9 11 -4 6 2 13 14 16 12 3
21 9 21 13 0 13 59 33 85 28 14 -3 28 -1 31 3 7 12 41 12 48 0z m1499 -210
c28 -11 35 -3 15 17 -25 25 1 11 31 -17 25 -23 28 -30 15 -35 -33 -13 -122 41
-146 89 -7 13 1 9 23 -12 19 -17 46 -36 62 -42z m3097 39 c0 -5 -4 -10 -10
-10 -5 0 -10 5 -10 10 0 6 5 10 10 10 6 0 10 -4 10 -10z m-17 -48 c-4 -18 -8
-20 -19 -11 -12 10 -11 14 3 24 22 16 24 15 16 -13z m-708 -112 c-9 -28 -18
-50 -20 -50 -8 0 7 96 18 115 19 35 21 -9 2 -65z m681 5 c-10 -44 -27 -56 -32
-22 -1 10 2 14 9 10 7 -4 8 0 4 12 -6 14 7 34 29 45 0 0 -4 -20 -10 -45z
m2864 12 c25 -1 50 0 55 3 6 2 26 6 45 7 29 2 32 0 17 -8 -10 -6 -27 -9 -38
-6 -10 3 -17 1 -13 -4 3 -5 -18 -32 -45 -59 -28 -28 -60 -68 -71 -88 -14 -26
-19 -29 -14 -12 3 14 13 36 21 48 14 22 13 23 -3 14 -20 -11 -54 -4 -54 11 0
6 -3 7 -7 4 -4 -4 -13 7 -20 24 -12 30 -12 34 9 56 17 18 29 23 48 18 14 -4
45 -7 70 -8z m-2723 -15 c-10 -10 -17 -25 -17 -33 0 -12 -2 -12 -9 0 -5 8 -11
9 -15 3 -10 -17 21 -21 43 -6 20 14 21 14 21 -14 0 -17 9 -37 24 -51 23 -22
25 -22 50 -6 14 9 28 26 32 38 6 19 8 19 19 4 7 -9 20 -17 30 -17 10 0 15 -3
11 -7 -4 -5 -18 -8 -29 -8 -15 0 -22 -6 -23 -20 -1 -11 -6 -33 -13 -48 -7 -19
-8 -34 -1 -47 12 -23 13 -30 1 -30 -5 0 -12 11 -15 25 -10 38 -20 30 -37 -27
l-16 -53 4 51 c5 46 3 54 -27 87 -38 44 -63 46 -116 11 -92 -61 -151 -137
-264 -341 -33 -59 -60 -103 -60 -97 0 21 62 146 137 278 51 88 73 137 71 155
-3 24 -7 26 -62 29 -33 2 -98 -2 -145 -7 -46 -6 -87 -9 -89 -6 -14 13 142 48
269 60 61 6 88 15 154 51 91 50 94 51 72 26z m243 10 c0 -5 9 -19 20 -32 22
-26 26 -55 8 -66 -8 -5 -9 -2 -5 10 6 14 3 17 -9 12 -9 -3 -27 3 -42 15 -25
20 -25 21 -4 15 19 -6 22 -4 22 19 0 22 -3 25 -21 20 -15 -5 -19 -4 -15 4 8
13 46 15 46 3z m-1103 -74 c-3 -7 -5 -2 -5 12 0 14 2 19 5 13 2 -7 2 -19 0
-25z m-4301 -15 c-10 -10 -19 5 -10 18 6 11 8 11 12 0 2 -7 1 -15 -2 -18z
m4291 -85 c-2 -13 -4 -3 -4 22 0 25 2 35 4 23 2 -13 2 -33 0 -45z m4009 41 c4
-6 -1 -10 -12 -8 -26 3 -74 -11 -74 -22 0 -5 -6 -9 -13 -9 -18 0 -97 -79 -108
-109 -5 -13 -12 -21 -15 -18 -19 19 102 156 138 157 9 0 20 5 23 10 8 13 52
13 61 -1z m-7363 -66 c-7 -2 -19 -2 -25 0 -7 3 -2 5 12 5 14 0 19 -2 13 -5z
m273 -40 c-7 -55 -12 -61 -31 -42 -13 13 -13 19 2 52 24 51 37 47 29 -10z
m-420 22 c19 -18 20 -18 -36 -1 -44 14 -44 15 -12 15 18 1 40 -6 48 -14z
m4275 -63 c-37 -39 -100 -123 -145 -195 -44 -70 -82 -125 -84 -123 -11 12 120
227 173 284 46 50 107 102 121 102 1 0 -28 -31 -65 -68z m-4579 -44 c-12 -35
-22 -71 -22 -81 0 -10 -7 -26 -16 -34 -14 -14 -15 -12 -9 23 21 130 40 183 58
165 8 -8 5 -28 -11 -73z m536 56 c19 -8 45 -14 58 -14 28 0 28 -4 12 -68 -7
-27 -22 -55 -35 -65 -13 -10 -30 -32 -39 -49 -8 -16 -18 -27 -21 -25 -3 3 -1
12 3 19 48 74 41 181 -13 194 -33 9 -104 -36 -160 -103 -95 -112 -133 -154
-133 -147 0 13 61 102 116 171 30 38 54 77 54 89 0 19 4 21 62 17 35 -3 78
-11 96 -19z m3259 -86 c-2 -24 -4 -7 -4 37 0 44 2 63 4 43 2 -21 2 -57 0 -80z
m1074 -25 c-12 -20 -14 -14 -5 12 4 9 9 14 11 11 3 -2 0 -13 -6 -23z m-1327
-37 c-3 -15 -8 -25 -11 -23 -2 3 -1 17 3 31 3 15 8 25 11 23 2 -3 1 -17 -3
-31z m1307 -5 c-13 -23 -61 -35 -61 -14 0 13 32 31 58 32 9 1 10 -4 3 -18z
m-35 -78 c-8 -15 -15 -25 -16 -21 0 12 23 58 27 54 3 -2 -2 -17 -11 -33z
m3014 2 c-7 -9 -23 -21 -34 -27 -16 -8 -14 -3 8 21 29 31 51 36 26 6z m120 10
c0 -8 -9 -19 -19 -24 -17 -10 -18 -9 -7 14 12 28 26 33 26 10z m-3162 -70 c-6
-14 -13 -23 -15 -21 -5 5 15 46 22 46 3 0 -1 -11 -7 -25z m-4188 -3 c0 -5 -10
-17 -21 -28 -12 -10 -25 -30 -30 -43 -14 -36 -21 -18 -14 33 7 42 10 46 36 46
16 0 29 -4 29 -8z m7290 3 c0 -2 -10 -9 -22 -15 -22 -11 -22 -10 -4 4 21 17
26 19 26 11z m4445 -55 c-3 -5 -11 -10 -16 -10 -6 0 -7 5 -4 10 3 6 11 10 16
10 6 0 7 -4 4 -10z m-7675 -7 c0 -3 -7 -14 -15 -23 -8 -9 -39 -63 -70 -121
-58 -110 -75 -113 -26 -4 33 72 87 155 101 155 6 0 10 -3 10 -7z m5300 -33 c0
-5 -5 -10 -11 -10 -5 0 -7 5 -4 10 3 6 8 10 11 10 2 0 4 -4 4 -10z m430 -14
c0 -3 -4 -8 -10 -11 -5 -3 -10 -1 -10 4 0 6 5 11 10 11 6 0 10 -2 10 -4z
m-5689 -38 c-37 -59 -115 -149 -178 -204 -57 -51 -148 -102 -160 -91 -2 3 6 8
19 12 71 23 247 183 311 285 10 17 21 30 24 30 3 0 -4 -15 -16 -32z m5399 2
c0 -5 -5 -10 -11 -10 -5 0 -7 5 -4 10 3 6 8 10 11 10 2 0 4 -4 4 -10z m230
-34 c0 -3 -4 -8 -10 -11 -5 -3 -10 -1 -10 4 0 6 5 11 10 11 6 0 10 -2 10 -4z
m-290 -30 c0 -3 -4 -8 -10 -11 -5 -3 -10 -1 -10 4 0 6 5 11 10 11 6 0 10 -2
10 -4z m170 -6 c0 -5 -5 -10 -11 -10 -5 0 -7 5 -4 10 3 6 8 10 11 10 2 0 4 -4
4 -10z m2297 -42 c-3 -8 -6 -5 -6 6 -1 11 2 17 5 13 3 -3 4 -12 1 -19z m-2032
-28 c-17 -19 -31 -20 -235 -20 -177 0 -220 3 -236 15 -18 14 -17 14 9 5 16 -5
119 -10 231 -10 162 0 206 3 222 15 27 20 30 18 9 -5z m-6615 -70 c0 -6 -23
-9 -52 -8 l-53 1 50 7 c28 4 51 8 53 8 1 1 2 -2 2 -8z m-203 -16 c-3 -3 -12
-4 -19 -1 -8 3 -5 6 6 6 11 1 17 -2 13 -5z m61 -1 c-10 -2 -26 -2 -35 0 -10 3
-2 5 17 5 19 0 27 -2 18 -5z m-3453 -138 c-16 -8 -46 -14 -65 -14 -30 1 -28 3
20 14 72 16 81 16 45 0z m13432 -381 c-3 -3 -12 -4 -19 -1 -8 3 -5 6 6 6 11 1
17 -2 13 -5z m-950 -40 c-3 -3 -12 -4 -19 -1 -8 3 -5 6 6 6 11 1 17 -2 13 -5z
m-207 -26 c0 -6 -7 -7 -16 -4 -9 3 -20 6 -25 6 -5 0 -9 4 -9 9 0 4 11 6 25 3
14 -2 25 -9 25 -14z m-65 2 c8 -13 -5 -13 -25 0 -13 8 -13 10 2 10 9 0 20 -4
23 -10z m105 0 c0 -5 -8 -10 -17 -10 -15 0 -16 2 -3 10 19 12 20 12 20 0z m80
0 l25 -8 -25 -1 c-14 0 -32 4 -40 9 -13 9 -13 10 0 9 8 -1 26 -5 40 -9z m253
-7 c-13 -2 -33 -2 -45 0 -13 2 -3 4 22 4 25 0 35 -2 23 -4z m1470 -20 c-7 -2
-21 -2 -30 0 -10 3 -4 5 12 5 17 0 24 -2 18 -5z m-14587 -41 c-10 -2 -22 0
-28 6 -6 6 0 7 19 4 21 -5 23 -7 9 -10z m-778 1 c-10 -2 -26 -2 -35 0 -10 3
-2 5 17 5 19 0 27 -2 18 -5z m89 1 c-3 -3 -12 -4 -19 -1 -8 3 -5 6 6 6 11 1
17 -2 13 -5z m71 -1 c-10 -2 -28 -2 -40 0 -13 2 -5 4 17 4 22 1 32 -1 23 -4z"/>
<path d="M14538 6563 c7 -3 16 -2 19 1 4 3 -2 6 -13 5 -11 0 -14 -3 -6 -6z"/>
<path d="M14678 6553 c7 -3 16 -2 19 1 4 3 -2 6 -13 5 -11 0 -14 -3 -6 -6z"/>
<path d="M14777 6548 c2 -5 20 -8 40 -8 20 0 33 3 30 6 -9 10 -76 11 -70 2z"/>
<path d="M14875 6540 c-2 -3 14 -7 36 -8 21 -2 39 -1 39 2 0 7 -71 13 -75 6z"/>
<path d="M15005 6530 l-30 -8 33 -1 c17 0 32 4 32 9 0 6 -1 9 -2 9 -2 -1 -16
-5 -33 -9z"/>
<path d="M15178 6533 c7 -3 16 -2 19 1 4 3 -2 6 -13 5 -11 0 -14 -3 -6 -6z"/>
<path d="M15248 6523 c7 -3 16 -2 19 1 4 3 -2 6 -13 5 -11 0 -14 -3 -6 -6z"/>
<path d="M15108 6513 c12 -2 32 -2 45 0 12 2 2 4 -23 4 -25 0 -35 -2 -22 -4z"/>
<path d="M15195 6509 c-4 -5 14 -9 41 -9 55 0 55 5 2 13 -21 3 -40 1 -43 -4z"/>
<path d="M9500 7090 c-21 -5 -16 -7 24 -13 70 -10 98 -9 91 4 -4 6 -13 8 -20
5 -8 -3 -26 -1 -42 3 -15 4 -39 5 -53 1z"/>
<path d="M9273 7083 c15 -2 37 -2 50 0 12 2 0 4 -28 4 -27 0 -38 -2 -22 -4z"/>
<path d="M9458 7068 c5 -5 16 -8 23 -6 8 3 3 7 -10 11 -17 4 -21 3 -13 -5z"/>
<path d="M9650 7013 c8 -3 24 -10 35 -16 18 -9 19 -9 6 6 -7 10 -23 17 -35 16
-14 0 -16 -2 -6 -6z"/>
<path d="M9720 6983 c8 -3 27 -12 43 -20 15 -7 27 -11 27 -9 0 8 -58 36 -72
35 -9 0 -8 -2 2 -6z"/>
<path d="M9810 6946 c0 -3 9 -10 20 -16 11 -6 20 -8 20 -6 0 3 -9 10 -20 16
-11 6 -20 8 -20 6z"/>
<path d="M9870 6910 c35 -24 54 -31 30 -11 -14 11 -29 21 -35 21 -5 0 -3 -5 5
-10z"/>
<path d="M10106 6747 c2 -7 14 -19 27 -26 21 -13 21 -12 -2 13 -27 29 -33 32
-25 13z"/>
<path d="M10183 6678 c53 -54 88 -79 42 -30 -27 28 -53 52 -57 52 -4 0 3 -10
15 -22z"/>
<path d="M10290 6566 c0 -2 8 -10 18 -17 15 -13 16 -12 3 4 -13 16 -21 21 -21
13z"/>
<path d="M8488 5503 c7 -3 16 -2 19 1 4 3 -2 6 -13 5 -11 0 -14 -3 -6 -6z"/>
<path d="M8378 5483 c7 -3 16 -2 19 1 4 3 -2 6 -13 5 -11 0 -14 -3 -6 -6z"/>
<path d="M10056 5247 c3 -10 9 -15 12 -12 3 3 0 11 -7 18 -10 9 -11 8 -5 -6z"/>
<path d="M7218 5263 c7 -3 16 -2 19 1 4 3 -2 6 -13 5 -11 0 -14 -3 -6 -6z"/>
<path d="M7120 5250 c0 -5 5 -10 11 -10 5 0 7 5 4 10 -3 6 -8 10 -11 10 -2 0
-4 -4 -4 -10z"/>
<path d="M13246 5524 c-4 -9 -4 -19 -1 -22 2 -3 7 3 11 12 4 9 4 19 1 22 -2 3
-7 -3 -11 -12z"/>
<path d="M6352 5424 c-7 -8 -8 -14 -3 -14 10 0 25 19 20 25 -2 1 -10 -3 -17
-11z"/>
<path d="M6309 5391 c9 -6 10 -10 2 -14 -8 -4 -8 -5 1 -3 20 4 21 26 1 26 -14
0 -15 -2 -4 -9z"/>
<path d="M6280 5349 c0 -5 5 -7 10 -4 6 3 10 8 10 11 0 2 -4 4 -10 4 -5 0 -10
-5 -10 -11z"/>
<path d="M9871 5333 c-17 -16 -27 -20 -32 -12 -4 7 -9 8 -13 1 -3 -6 3 -13 14
-17 11 -4 18 -10 16 -14 -3 -4 4 -7 14 -7 10 0 16 4 14 8 -3 4 4 8 16 8 12 0
18 -4 15 -10 -3 -5 -1 -10 4 -10 6 0 11 5 11 12 0 7 13 -3 29 -22 16 -19 26
-39 23 -44 -3 -5 0 -6 7 -2 7 5 -4 26 -34 66 -25 33 -49 61 -53 63 -4 2 -18
-7 -31 -20z m59 -25 c0 -6 -6 -5 -15 2 -8 7 -15 14 -15 16 0 2 7 1 15 -2 8 -4
15 -11 15 -16z m-45 2 c-3 -5 -12 -10 -18 -10 -7 0 -6 4 3 10 19 12 23 12 15
0z"/>
<path d="M10150 4840 c-9 -6 -10 -10 -3 -10 6 0 15 5 18 10 8 12 4 12 -15 0z"/>
<path d="M16830 4465 c0 -8 2 -15 4 -15 2 0 6 7 10 15 3 8 1 15 -4 15 -6 0
-10 -7 -10 -15z"/>
<path d="M5620 4870 c-8 -5 -12 -11 -10 -14 3 -2 14 2 24 10 22 15 10 19 -14
4z"/>
<path d="M5540 4800 c-8 -5 -10 -10 -5 -10 6 0 17 5 25 10 8 5 11 10 5 10 -5
0 -17 -5 -25 -10z"/>
<path d="M5175 4469 c-4 -6 -5 -12 -2 -15 2 -3 7 2 10 11 7 17 1 20 -8 4z"/>
<path d="M9695 4660 c-13 -6 -15 -9 -5 -9 8 0 22 4 30 9 18 12 2 12 -25 0z"/>
</g>
</svg>
